<?xml version="1.0"?>
<svg xmlns="http://www.w3.org/2000/svg" height="512px" viewBox="-48 0 512 512" width="512px" class=""><g><path d="m207.75 255.074219c63.101562 0 114.433594-51.21875 114.433594-114.171875v-52.171875h-228.867188v52.171875c0 62.953125 51.332032 114.171875 114.433594 114.171875zm0 0" data-original="#000000" class="active-path" data-old_color="#000000" fill="#FFFFFF"/><path d="m208 255.074219h-.5c-57.851562 0-105.800781 43.25-113.191406 99.136719 31.300781-26.605469 71.371094-41.671876 113.519531-41.671876 42.011719 0 82.042969 15.023438 113.332031 41.53125-7.449218-55.816406-55.359375-98.996093-113.160156-98.996093zm0 0" data-original="#000000" class="active-path" data-old_color="#000000" fill="#FFFFFF"/><path d="m322.179688 398.152344c-27.429688-34.976563-69.53125-55.605469-114.351563-55.605469-44.96875 0-87.089844 20.6875-114.519531 55.816406v23.046875h228.871094zm0 0" data-original="#000000" class="active-path" data-old_color="#000000" fill="#FFFFFF"/><path d="m415 43.21875c0-23.867188-19.34375-43.21875-43.207031-43.21875h-328.585938c-23.863281 0-43.207031 19.351562-43.207031 43.21875 0 9.117188 7.386719 16.503906 16.5 16.503906h10.078125v392.550782h-10.078125c-9.113281 0-16.5 7.390624-16.5 16.503906 0 23.871094 19.34375 43.222656 43.207031 43.222656h328.585938c23.863281 0 43.207031-19.351562 43.207031-43.21875 0-9.117188-7.386719-16.503906-16.5-16.503906h-10.078125v-392.554688h10.078125c9.113281 0 16.5-7.386718 16.5-16.503906zm-56.578125 409.058594h-301.84375v-392.554688h301.84375zm0 0" data-original="#000000" class="active-path" data-old_color="#000000" fill="#FFFFFF"/></g> </svg>
