<?xml version="1.0"?>
<svg xmlns="http://www.w3.org/2000/svg" height="512px" viewBox="-61 0 512 512" width="512px" class=""><g><path d="m240 15c0-8.285156-6.714844-15-15-15h-60c-8.285156 0-15 6.714844-15 15v46h90zm0 0" data-original="#000000" class="active-path" data-old_color="#000000" fill="#FFFFFF"/><path d="m375 31h-105v45c0 8.285156-6.714844 15-15 15h-120c-8.285156 0-15-6.714844-15-15v-45h-105c-8.285156 0-15 6.714844-15 15v451c0 8.285156 6.714844 15 15 15h360c8.285156 0 15-6.714844 15-15v-451c0-8.285156-6.714844-15-15-15zm-255 387.238281v16.5625c0 8.289063-6.710938 15-15 15s-15-6.710937-15-15v-16.730469c-9.898438-3.546874-18.566406-10.210937-23.964844-19.554687-4.160156-7.179687-1.699218-16.347656 5.464844-20.492187 7.175781-4.207032 16.359375-1.714844 20.492188 5.460937 2.679687 4.644531 7.660156 7.515625 13.007812 7.515625 8.277344 0 15-6.722656 15-15s-6.722656-15-15-15c-24.8125 0-45-20.1875-45-45 0-19.53125 12.578125-36.023438 30-42.238281v-17.160157c0-8.292968 6.710938-15 15-15s15 6.707032 15 15v17.328126c9.898438 3.542968 18.566406 10.210937 23.964844 19.554687 4.160156 7.179687 1.699218 16.347656-5.464844 20.492187-7.234375 4.132813-16.375 1.699219-20.492188-5.460937-2.679687-4.644531-7.660156-7.515625-13.007812-7.515625-8.277344 0-15 6.722656-15 15s6.722656 15 15 15c24.8125 0 45 20.1875 45 45 0 19.53125-12.578125 36.023438-30 42.238281zm195 32.761719h-120c-8.289062 0-15-6.710938-15-15s6.710938-15 15-15h120c8.289062 0 15 6.710938 15 15s-6.710938 15-15 15zm0-60h-120c-8.289062 0-15-6.710938-15-15s6.710938-15 15-15h120c8.289062 0 15 6.710938 15 15s-6.710938 15-15 15zm0-60h-120c-8.289062 0-15-6.710938-15-15s6.710938-15 15-15h120c8.289062 0 15 6.710938 15 15s-6.710938 15-15 15zm0-60h-120c-8.289062 0-15-6.710938-15-15s6.710938-15 15-15h120c8.289062 0 15 6.710938 15 15s-6.710938 15-15 15zm0-60h-240c-8.289062 0-15-6.710938-15-15s6.710938-15 15-15h240c8.289062 0 15 6.710938 15 15s-6.710938 15-15 15zm0-60h-240c-8.289062 0-15-6.710938-15-15s6.710938-15 15-15h240c8.289062 0 15 6.710938 15 15s-6.710938 15-15 15zm0 0" data-original="#000000" class="active-path" data-old_color="#000000" fill="#FFFFFF"/></g> </svg>
