<svg xmlns="http://www.w3.org/2000/svg" width="25.096" height="25.096" viewBox="0 0 25.096 25.096">
  <path id="decision-review-selected" d="M25.8,20.7V17.72a4.486,4.486,0,0,0-4.486-4.486H18.749a1.923,1.923,0,0,1-1.923-1.923V8.333a3.076,3.076,0,1,0-2.563,0v2.979a1.923,1.923,0,0,1-1.923,1.923H9.777A4.486,4.486,0,0,0,5.291,17.72V20.7a3.076,3.076,0,1,0,2.563,0V17.72A1.923,1.923,0,0,1,9.777,15.8H12.34a4.439,4.439,0,0,0,1.923-.449V20.7a3.076,3.076,0,1,0,2.563,0v-5.35a4.439,4.439,0,0,0,1.923.449h2.563a1.923,1.923,0,0,1,1.923,1.923V20.7a3.076,3.076,0,1,0,2.563,0ZM15.544,3.769A1.775,1.775,0,1,1,13.77,5.544a1.774,1.774,0,0,1,1.774-1.775ZM6.572,25.263a1.775,1.775,0,1,1,1.774-1.775,1.775,1.775,0,0,1-1.774,1.775Zm8.972,0a1.775,1.775,0,1,1,1.774-1.775,1.775,1.775,0,0,1-1.774,1.775Zm8.972,0a1.775,1.775,0,1,1,1.774-1.775,1.775,1.775,0,0,1-1.774,1.775Z" transform="translate(-2.996 -1.968)" fill="#44a9ff" stroke="#4aabff" stroke-width="1"/>
</svg>
