<svg xmlns="http://www.w3.org/2000/svg" width="22.096" height="22.096" viewBox="0 0 22.096 22.096">
  <path id="fax-extract" d="M2.762,5.524H1.381A1.381,1.381,0,0,0,0,6.905v13.81A1.381,1.381,0,0,0,1.381,22.1H2.762a1.381,1.381,0,0,0,1.381-1.381V6.905A1.381,1.381,0,0,0,2.762,5.524ZM20.715,6.905V3.334a1.382,1.382,0,0,0-.4-.977L18.358.4a1.381,1.381,0,0,0-.977-.4H6.905A1.381,1.381,0,0,0,5.524,1.381V20.715A1.381,1.381,0,0,0,6.905,22.1h13.81A1.381,1.381,0,0,0,22.1,20.715V8.286A1.381,1.381,0,0,0,20.715,6.905ZM12.429,18.644a.69.69,0,0,1-.691.691H10.358a.69.69,0,0,1-.691-.691V17.263a.69.69,0,0,1,.691-.691h1.381a.69.69,0,0,1,.691.691Zm0-5.524a.69.69,0,0,1-.691.691H10.358a.69.69,0,0,1-.691-.691V11.739a.69.69,0,0,1,.691-.691h1.381a.69.69,0,0,1,.691.691Zm5.524,5.524a.69.69,0,0,1-.691.691H15.882a.69.69,0,0,1-.691-.691V17.263a.69.69,0,0,1,.691-.691h1.381a.69.69,0,0,1,.691.691Zm0-5.524a.69.69,0,0,1-.691.691H15.882a.69.69,0,0,1-.691-.691V11.739a.69.69,0,0,1,.691-.691h1.381a.69.69,0,0,1,.691.691Zm.691-4.834H7.6V2.072h8.977V3.453a.69.69,0,0,0,.691.691h1.381Z" fill="#bcbcbc"/>
</svg>
