<svg xmlns="http://www.w3.org/2000/svg" width="26.017" height="20.814" viewBox="0 0 26.017 20.814">
  <path id="Icon_awesome-user-check" data-name="Icon awesome-user-check" d="M9.106,10.407A5.2,5.2,0,1,0,3.9,5.2,5.2,5.2,0,0,0,9.106,10.407Zm3.642,1.3h-.679a7.076,7.076,0,0,1-5.927,0H5.464A5.465,5.465,0,0,0,0,17.171v1.691a1.952,1.952,0,0,0,1.951,1.951H16.261a1.952,1.952,0,0,0,1.951-1.951V17.171A5.465,5.465,0,0,0,12.748,11.708Zm13.13-5.22-1.13-1.142a.482.482,0,0,0-.683,0l-4.26,4.228-1.85-1.862a.482.482,0,0,0-.683,0L16.131,8.838a.482.482,0,0,0,0,.683l3.321,3.346a.482.482,0,0,0,.683,0l5.744-5.7a.486.486,0,0,0,0-.683Z" fill="#4aabff"/>
</svg>
