<svg xmlns="http://www.w3.org/2000/svg" xmlns:xlink="http://www.w3.org/1999/xlink" width="23.067" height="24.989" viewBox="0 0 23.067 24.989">
  <defs>
    <clipPath id="clip-path">
      <rect width="23.067" height="24.989" fill="none"/>
    </clipPath>
  </defs>
  <g id="Repeat_Grid_1" data-name="Repeat Grid 1" clip-path="url(#clip-path)">
    <g transform="translate(-34.751 -547)">
      <path id="Icon_ionic-md-hand" data-name="Icon ionic-md-hand" d="M25.854,15.721a1.942,1.942,0,0,0-2.825-.073L20.7,17.972a1.146,1.146,0,0,1-1.761.1c-.282-.333-.171-1.36-.092-2.011l1.166-9.586a1.563,1.563,0,1,0-3.1-.377L15.629,13.63c-.067.187-.211.22-.228-.032l-.438-9.786a1.563,1.563,0,0,0-3.125,0l-.031,9.859c.008.114-.089.146-.107.016l-1.39-7.7a1.563,1.563,0,1,0-3.076.555l1.238,9.006c0,.16-.052.252-.129.046L6.5,10.661a1.589,1.589,0,0,0-2-1,1.616,1.616,0,0,0-.95,2.043L6.79,22.284c.017.058.035.116.053.174l.007.022,0,0a6.888,6.888,0,0,0,6.55,4.755,9.319,9.319,0,0,0,5.542-1.878h0c1.673-1.007,7.032-6.769,7.032-6.769A2,2,0,0,0,25.854,15.721Z" transform="translate(31.289 544.75)" fill="#4aabff"/>
    </g>
  </g>
</svg>
