<svg xmlns="http://www.w3.org/2000/svg" width="19" height="25.333" viewBox="0 0 19 25.333">
  <path id="Icon_awesome-clipboard-list" data-name="Icon awesome-clipboard-list" d="M16.625,3.167H12.667a3.167,3.167,0,1,0-6.333,0H2.375A2.376,2.376,0,0,0,0,5.542V22.958a2.376,2.376,0,0,0,2.375,2.375h14.25A2.376,2.376,0,0,0,19,22.958V5.542A2.376,2.376,0,0,0,16.625,3.167ZM4.75,20.979a1.188,1.188,0,1,1,1.188-1.187A1.185,1.185,0,0,1,4.75,20.979Zm0-4.75a1.188,1.188,0,1,1,1.188-1.187A1.185,1.185,0,0,1,4.75,16.229Zm0-4.75a1.188,1.188,0,1,1,1.188-1.187A1.185,1.185,0,0,1,4.75,11.479Zm4.75-9.5A1.188,1.188,0,1,1,8.313,3.167,1.185,1.185,0,0,1,9.5,1.979Zm6.333,18.208a.4.4,0,0,1-.4.4H8.313a.4.4,0,0,1-.4-.4V19.4a.4.4,0,0,1,.4-.4h7.125a.4.4,0,0,1,.4.4Zm0-4.75a.4.4,0,0,1-.4.4H8.313a.4.4,0,0,1-.4-.4v-.792a.4.4,0,0,1,.4-.4h7.125a.4.4,0,0,1,.4.4Zm0-4.75a.4.4,0,0,1-.4.4H8.313a.4.4,0,0,1-.4-.4V9.9a.4.4,0,0,1,.4-.4h7.125a.4.4,0,0,1,.4.4Z" fill="#bcbcbc"/>
</svg>
