<svg xmlns="http://www.w3.org/2000/svg" width="38" height="38" viewBox="0 0 38 38" fill="#2E2E2E">
  <path id="Icon_awesome-upload" data-name="Icon awesome-upload" d="M21.969,28.5H16.031a1.777,1.777,0,0,1-1.781-1.782V14.252H7.741a1.482,1.482,0,0,1-1.046-2.531L17.983.423a1.438,1.438,0,0,1,2.026,0l11.3,11.3a1.482,1.482,0,0,1-1.046,2.531H23.75V26.722A1.777,1.777,0,0,1,21.969,28.5ZM38,27.91v8.314a1.777,1.777,0,0,1-1.781,1.782H1.781A1.777,1.777,0,0,1,0,36.224V27.91a1.777,1.777,0,0,1,1.781-1.782H11.875v.594a4.159,4.159,0,0,0,4.156,4.157h5.938a4.159,4.159,0,0,0,4.156-4.157v-.594H36.219A1.777,1.777,0,0,1,38,27.91Zm-9.2,6.532a1.484,1.484,0,1,0-1.484,1.485A1.489,1.489,0,0,0,28.8,34.442Zm4.75,0a1.484,1.484,0,1,0-1.484,1.485A1.489,1.489,0,0,0,33.547,34.442Z" transform="translate(0 -0.005)" fill="#404040"/>
</svg>
