<svg xmlns="http://www.w3.org/2000/svg" viewBox="0 0 26 26"><defs><style>.cls-1{fill:#abb2b8;}</style></defs><title>Asset 2</title><g id="Layer_2" data-name="Layer 2"><g id="Layer_1-2" data-name="Layer 1"><path class="cls-1" d="M13,0A13,13,0,1,0,26,13,13,13,0,0,0,13,0Zm.84,20.21h-2v-2h2Zm2.5-8.4A13.05,13.05,0,0,1,14.52,14a2.26,2.26,0,0,0-.64,1,5.31,5.31,0,0,0-.11,1.31H11.84a5.6,5.6,0,0,1,.25-2,4.72,4.72,0,0,1,1.23-1.45A20.94,20.94,0,0,0,14.69,11a2.55,2.55,0,0,0,.41-1.48A2.15,2.15,0,0,0,14.55,8,2.07,2.07,0,0,0,13,7.41a2.42,2.42,0,0,0-1.52.48,1.7,1.7,0,0,0-.62,1.42H9l0-.06a3,3,0,0,1,1.11-2.51,4.33,4.33,0,0,1,2.9-1,4.25,4.25,0,0,1,3,1A3.54,3.54,0,0,1,17,9.51,4.06,4.06,0,0,1,16.34,11.81Z"/></g></g></svg>