<svg xmlns="http://www.w3.org/2000/svg" width="22.568" height="22.568" viewBox="0 0 22.568 22.568">
  <path id="Icon_ionic-ios-checkmark-circle" data-name="Icon ionic-ios-checkmark-circle" d="M14.659,3.375A11.284,11.284,0,1,0,25.943,14.659,11.282,11.282,0,0,0,14.659,3.375Zm5.778,8.165-7.253,7.286h-.005a.98.98,0,0,1-.629.3.95.95,0,0,1-.635-.309L8.876,15.777a.216.216,0,0,1,0-.309l.966-.966a.21.21,0,0,1,.3,0l2.409,2.409,6.619-6.667a.214.214,0,0,1,.152-.065h0a.2.2,0,0,1,.152.065l.949.982A.214.214,0,0,1,20.437,11.54Z" transform="translate(-3.375 -3.375)" fill="#bcbcbc"/>
</svg>
