<?xml version="1.0"?>
<svg xmlns="http://www.w3.org/2000/svg" xmlns:xlink="http://www.w3.org/1999/xlink" version="1.1" id="Capa_1" x="0px" y="0px" viewBox="0 0 512 512" style="enable-background:new 0 0 512 512;" xml:space="preserve" width="512px" height="512px"><g><g>
	<g>
		<path d="M392,226.838V106h45c8.271,0,15,6.729,15,15v53.787l-4.394-4.394c-5.857-5.858-15.355-5.858-21.213,0    c-5.858,5.858-5.858,15.355,0,21.213l29.997,29.998c5.836,5.832,15.355,5.859,21.218,0l29.997-29.998    c5.858-5.858,5.858-15.355,0-21.213c-5.857-5.858-15.355-5.858-21.213,0L482,174.787V121c0-24.813-20.187-45-45-45h-45V61    c0-24.813-20.187-45-45-45H45C20.187,16,0,36.187,0,61v180c0,24.813,20.187,44.8,45,44.8h219.806    C250.409,307.266,242,333.268,242,361s8.409,53.534,22.806,75H165c-8.271,0-15-6.729-15-15v-53.787l4.394,4.394    c5.857,5.858,15.356,5.858,21.213,0c5.858-5.858,5.858-15.355,0-21.213l-29.997-29.998c-0.35-0.35-0.719-0.682-1.103-0.997    c-6.013-4.94-14.735-4.38-20.115,0.997l-29.997,29.998c-5.858,5.858-5.858,15.355,0,21.213c5.857,5.858,15.355,5.858,21.213,0    l4.394-4.394V421c0,24.813,20.187,45,45,45h122c1.541,0,3.027-0.234,4.426-0.666C314.735,484.487,344.547,496,377,496    c74.439,0,135-60.561,135-135C512,291.631,459.406,234.324,392,226.838z M480.924,346h-44.27    c-1.178-26.404-5.719-56.159-15.912-80.443C452.512,280.175,475.78,310.198,480.924,346z M30,61c0-8.271,6.729-15,15-15h302    c8.271,0,15,6.729,15,15v15H30V61z M45,256c-8.271,0-15-6.729-15-15V106h332v120.838c-26.238,2.914-50.228,13.376-69.749,29.162    H45z M273.076,376h44.27c1.178,26.404,5.719,56.159,15.912,80.443C301.488,441.825,278.22,411.802,273.076,376z M317.346,346    h-44.27c5.144-35.802,28.412-65.825,60.182-80.443C323.069,289.833,318.525,319.583,317.346,346z M394.774,440.586    C386.996,461.331,379.139,466,377,466c-2.139,0-9.996-4.669-17.775-25.414c-6.565-17.506-10.663-40.242-11.854-64.786h59.257    C405.437,400.343,401.339,423.08,394.774,440.586z M347.371,346c1.191-24.543,5.289-47.08,11.854-64.586    C367.004,260.669,374.861,256,377,256c2.139,0,9.996,4.669,17.775,25.414c6.565,17.506,10.663,40.042,11.854,64.586H347.371z     M420.742,456.443c10.189-24.276,14.733-54.226,15.912-80.643h44.27C475.78,411.602,452.512,441.825,420.742,456.443z" data-original="#000000" class="active-path" data-old_color="#000000" fill="#44A9FF"/>
	</g>
</g><g>
	<g>
		<path d="M165,136c-11.517,0-22.032,4.354-30,11.495C127.032,140.354,116.517,136,105,136c-24.813,0-45,20.187-45,45    s20.187,45,45,45c11.517,0,22.032-4.354,30-11.495c7.968,7.142,18.483,11.495,30,11.495c24.813,0,45-20.187,45-45    S189.813,136,165,136z M105,196c-8.271,0-15-6.729-15-15s6.729-15,15-15s15,6.729,15,15S113.271,196,105,196z M165,196    c-8.271,0-15-6.729-15-15s6.729-15,15-15s15,6.729,15,15S173.271,196,165,196z" data-original="#000000" class="active-path" data-old_color="#000000" fill="#44A9FF"/>
	</g>
</g></g> </svg>
