<?xml version="1.0"?>
<svg xmlns="http://www.w3.org/2000/svg" height="512px" viewBox="0 -60 512 512" width="512px" class=""><g><path d="m456.835938 0h-401.667969c-30.421875 0-55.167969 24.746094-55.167969 55.167969v281.164062c0 30.421875 24.746094 55.167969 55.167969 55.167969h401.667969c30.417968 0 55.164062-24.746094 55.164062-55.167969v-281.164062c0-30.421875-24.746094-55.167969-55.164062-55.167969zm-401.667969 30h401.667969c13.875 0 25.164062 11.289062 25.164062 25.167969v41.230469h-452v-41.230469c0-13.878907 11.289062-25.167969 25.167969-25.167969zm401.667969 331.5h-401.667969c-13.878907 0-25.167969-11.289062-25.167969-25.167969v-209.933593h452v209.933593c0 13.878907-11.289062 25.167969-25.164062 25.167969zm0 0" data-original="#000000" class="active-path" data-old_color="#000000" fill="#44A9FF"/><path d="m416.667969 200.832031h-128.535157c-8.28125 0-15 6.71875-15 15 0 8.285157 6.71875 15 15 15h128.535157c8.28125 0 15-6.714843 15-15 0-8.28125-6.71875-15-15-15zm0 0" data-original="#000000" class="active-path" data-old_color="#000000" fill="#44A9FF"/><path d="m416.667969 281.167969h-80.332031c-8.285157 0-15 6.714843-15 15 0 8.28125 6.714843 15 15 15h80.332031c8.28125 0 15-6.71875 15-15 0-8.285157-6.71875-15-15-15zm0 0" data-original="#000000" class="active-path" data-old_color="#000000" fill="#44A9FF"/><path d="m186.273438 205.226562c-2.8125-2.8125-6.628907-4.394531-10.605469-4.394531h-80.332031c-8.285157 0-15 6.71875-15 15v80.335938c0 8.28125 6.714843 15 15 15h112.464843c8.285157 0 15-6.71875 15-15v-48.199219c0-3.980469-1.582031-7.796875-4.394531-10.609375zm6.527343 75.941407h-82.464843v-50.335938h59.117187l23.347656 23.347657zm0 0" data-original="#000000" class="active-path" data-old_color="#000000" fill="#44A9FF"/></g> </svg>
