<svg xmlns="http://www.w3.org/2000/svg" width="25.746" height="22.068" viewBox="0 0 25.746 22.068">
  <path id="express-cases" d="M15.123,4.5A12.869,12.869,0,0,0,5.486,25.9c.063.069.121.138.184.2A1.447,1.447,0,0,0,7.8,26.1a9.95,9.95,0,0,1,14.643,0,1.447,1.447,0,0,0,2.132.006l.184-.2A12.869,12.869,0,0,0,15.123,4.5Zm-.8,2.638a.8.8,0,0,1,1.609,0V9.207a.8.8,0,1,1-1.609,0ZM6.963,18.172H4.894a.8.8,0,0,1,0-1.609H6.963a.8.8,0,0,1,0,1.609Zm2.96-6.006h0a.812.812,0,0,1-1.138,0l-1.465-1.46a.812.812,0,0,1,0-1.138h0a.812.812,0,0,1,1.138,0l1.465,1.465A.8.8,0,0,1,9.922,12.166Zm9.23,1.983-2.73,4.339a1.781,1.781,0,0,1-.4.4,1.73,1.73,0,1,1-2.011-2.816l4.339-2.73a.588.588,0,0,1,.672,0A.578.578,0,0,1,19.152,14.149Zm2.31-1.983a.812.812,0,0,1-1.138,0h0a.812.812,0,0,1,0-1.138L21.79,9.563a.812.812,0,0,1,1.138,0h0a.812.812,0,0,1,0,1.138Zm3.891,6.006H23.284a.8.8,0,0,1,0-1.609h2.069a.8.8,0,0,1,0,1.609Z" transform="translate(-2.25 -4.5)" fill="#bcbcbc"/>
</svg>
