<svg xmlns="http://www.w3.org/2000/svg" width="23.766" height="20.054" viewBox="0 0 23.766 20.054">
  <path id="Icon_awesome-tasks" data-name="Icon awesome-tasks" d="M6.48,2.412a.557.557,0,0,0-.789,0L2.735,5.35,1.682,4.324a.557.557,0,0,0-.789,0l-.729.73a.557.557,0,0,0,0,.789l2.209,2.2a.593.593,0,0,0,.817,0l.724-.725L7.265,3.967a.561.561,0,0,0,0-.789Zm0,7.389a.557.557,0,0,0-.789,0L2.735,12.759,1.682,11.733a.557.557,0,0,0-.789,0l-.729.728a.557.557,0,0,0,0,.789l2.2,2.2a.593.593,0,0,0,.817,0l.729-.728,3.351-3.352a.557.557,0,0,0,0-.784Zm-3.51,8.045a2.228,2.228,0,1,0,0,4.456,2.228,2.228,0,1,0,0-4.456Zm20.052.743H9.655a.743.743,0,0,0-.743.743v1.485a.743.743,0,0,0,.743.743H23.023a.743.743,0,0,0,.743-.743V19.331A.743.743,0,0,0,23.023,18.588Zm0-14.853H9.655a.743.743,0,0,0-.743.743V5.963a.743.743,0,0,0,.743.743H23.023a.743.743,0,0,0,.743-.743V4.477A.743.743,0,0,0,23.023,3.735Zm0,7.427H9.655a.743.743,0,0,0-.743.743v1.485a.743.743,0,0,0,.743.743H23.023a.743.743,0,0,0,.743-.743V11.9A.743.743,0,0,0,23.023,11.161Z" transform="translate(0 -2.248)" fill="#bcbcbc"/>
</svg>
