<svg xmlns="http://www.w3.org/2000/svg" width="22.818" height="22.818" viewBox="0 0 22.818 22.818">
  <path id="Icon_material-rate-review" data-name="Icon material-rate-review" d="M23.536,3H5.282a2.279,2.279,0,0,0-2.27,2.282L3,25.818l4.564-4.564H23.536a2.288,2.288,0,0,0,2.282-2.282V5.282A2.288,2.288,0,0,0,23.536,3ZM7.564,16.691V13.873l7.849-7.849a.565.565,0,0,1,.81,0l2.019,2.019a.565.565,0,0,1,0,.81l-7.861,7.838Zm13.691,0H12.7l2.282-2.282h6.275Z" transform="translate(-3 -3)" fill="#4aabff"/>
</svg>
