<?xml version="1.0" encoding="UTF-8"?>
<svg xmlns="http://www.w3.org/2000/svg" xmlns:xlink="http://www.w3.org/1999/xlink" width="14pt" height="14pt" viewBox="0 0 14 14" version="1.1">
<g id="surface1">
<path style=" stroke:none;fill-rule:nonzero;fill:rgb(98.431373%,98.431373%,98.431373%);fill-opacity:1;" d="M 4.679688 11.355469 L 2.074219 11.355469 C 1.574219 11.355469 1.164062 10.964844 1.164062 10.464844 L 1.164062 2.394531 C 1.164062 1.894531 1.574219 1.507812 2.074219 1.507812 L 8.375 1.507812 C 8.875 1.507812 9.28125 1.894531 9.28125 2.394531 L 9.28125 9.160156 L 10.445312 7.773438 L 10.445312 1.527344 C 10.445312 0.875 9.925781 0.34375 9.273438 0.34375 L 1.128906 0.34375 C 0.5 0.34375 0 0.851562 0 1.480469 L 0 11.363281 C 0 12.015625 0.523438 12.550781 1.179688 12.550781 L 5.75 12.550781 L 5.210938 12.082031 C 4.972656 11.875 4.796875 11.625 4.679688 11.355469 Z M 4.679688 11.355469 "/>
<path style=" stroke:none;fill-rule:nonzero;fill:rgb(98.431373%,98.431373%,98.431373%);fill-opacity:1;" d="M 7.890625 3 L 2.664062 3 C 2.34375 3 2.082031 3.261719 2.082031 3.582031 C 2.082031 3.902344 2.34375 4.164062 2.664062 4.164062 L 7.890625 4.164062 C 8.214844 4.164062 8.472656 3.902344 8.472656 3.582031 C 8.472656 3.261719 8.214844 3 7.890625 3 Z M 7.890625 3 "/>
<path style=" stroke:none;fill-rule:nonzero;fill:rgb(98.431373%,98.431373%,98.431373%);fill-opacity:1;" d="M 7.890625 4.9375 L 2.664062 4.9375 C 2.34375 4.9375 2.082031 5.199219 2.082031 5.519531 C 2.082031 5.839844 2.34375 6.101562 2.664062 6.101562 L 7.890625 6.101562 C 8.214844 6.101562 8.472656 5.839844 8.472656 5.519531 C 8.472656 5.199219 8.214844 4.9375 7.890625 4.9375 Z M 7.890625 4.9375 "/>
<path style=" stroke:none;fill-rule:nonzero;fill:rgb(98.431373%,98.431373%,98.431373%);fill-opacity:1;" d="M 7.890625 6.878906 L 2.664062 6.878906 C 2.34375 6.878906 2.082031 7.125 2.082031 7.445312 C 2.082031 7.765625 2.34375 8.011719 2.664062 8.011719 L 7.890625 8.011719 C 8.214844 8.011719 8.472656 7.765625 8.472656 7.445312 C 8.472656 7.125 8.214844 6.878906 7.890625 6.878906 Z M 7.890625 6.878906 "/>
<path style=" stroke:none;fill-rule:nonzero;fill:rgb(98.431373%,98.431373%,98.431373%);fill-opacity:1;" d="M 2.082031 9.296875 C 2.082031 9.617188 2.34375 9.863281 2.664062 9.863281 L 4.613281 9.863281 C 4.695312 9.652344 4.820312 9.410156 4.992188 9.210938 C 5.171875 9 5.386719 8.847656 5.617188 8.726562 L 2.664062 8.726562 C 2.34375 8.730469 2.082031 8.976562 2.082031 9.296875 Z M 2.082031 9.296875 "/>
<path style=" stroke:none;fill-rule:nonzero;fill:rgb(98.431373%,98.431373%,98.431373%);fill-opacity:1;" d="M 7.890625 8.730469 L 7.457031 8.730469 C 7.597656 8.789062 7.734375 8.890625 7.859375 9 L 8.441406 9.496094 C 8.460938 9.433594 8.472656 9.371094 8.472656 9.300781 C 8.472656 8.984375 8.214844 8.730469 7.890625 8.730469 Z M 7.890625 8.730469 "/>
<path style=" stroke:none;fill-rule:nonzero;fill:rgb(98.431373%,98.431373%,98.431373%);fill-opacity:1;" d="M 13.640625 7.175781 C 13.214844 6.808594 12.574219 6.859375 12.207031 7.289062 L 8.871094 11.203125 L 7.199219 9.769531 C 6.773438 9.40625 6.132812 9.453125 5.765625 9.878906 C 5.398438 10.304688 5.449219 10.945312 5.875 11.3125 L 8.316406 13.410156 C 8.503906 13.570312 8.738281 13.65625 8.980469 13.65625 C 9.007812 13.65625 9.03125 13.65625 9.0625 13.652344 C 9.328125 13.632812 9.578125 13.503906 9.753906 13.300781 L 13.757812 8.605469 C 14.121094 8.179688 14.070312 7.539062 13.640625 7.175781 Z M 13.640625 7.175781 "/>
</g>
</svg>
