<?xml version="1.0" encoding="utf-8"?>
<!-- Generator: Adobe Illustrator 16.0.0, SVG Export Plug-In . SVG Version: 6.00 Build 0)  -->
<!DOCTYPE svg PUBLIC "-//W3C//DTD SVG 1.1//EN" "http://www.w3.org/Graphics/SVG/1.1/DTD/svg11.dtd">
<svg version="1.1" id="Layer_1" xmlns="http://www.w3.org/2000/svg" xmlns:xlink="http://www.w3.org/1999/xlink" x="0px" y="0px"
	 width="734.349px" height="625.616px" viewBox="0 0 734.349 625.616" enable-background="new 0 0 734.349 625.616"
	 xml:space="preserve">
<g>
	<path fill-rule="evenodd" clip-rule="evenodd" fill="#5a5a5a" d="M8.58,610.334c0.713-2.338,5.334-5.27,6.345-7.022
		c2.467-4.278,17.463-14.058,21.546-16.441c17.614-10.283,34.954-21.095,52.972-30.617c31.038-16.403,31.192-27.709,56.193-42.463
		c7.398-2.766,14.219-7.163,21.129-11.118c3.812-2.183,7.319-4.685,12.062-3.208c0.677,0.211,1.737-0.013,2.324-0.441
		c4.312-3.151,8.887-3.504,14.162-2.91c2.528,0.284,5.729-2.241,8.062-4.174c3.054-2.528,5.608-5.677,8.272-8.654
		c3.442-3.848,7.414-5.963,12.779-4.872c3.069,0.624,6.219,0.867,9.34,1.213c0.63,0.07,1.635,0.068,1.89-0.3
		c3.351-4.848,8.057-9.377,9.5-14.769c1.805-6.735,0.965-14.193,1.116-21.343c0.029-1.395-0.187-3.207-1.039-4.145
		c-10.157-11.168-14.321-24.976-16.922-39.271c-2.199-12.082-3.563-24.325-5.038-36.528c-0.84-6.946-0.938-7.214-7.912-5.682
		c-5.974,1.312-12.659-2.968-14.083-9.775c-1.69-8.086-2.169-16.443-4.12-24.453c-2.191-9.002-5.612-17.698-8.164-26.623
		c-1.499-5.245-2.402-10.665-3.475-16.026c-1.335-6.678-2.908-13.336-3.685-20.083c-0.333-2.891,1.058-5.988,1.714-8.981
		c0.509-2.318,4.976-3.859,0.995-7.231c-0.935-0.792,0.53-4.138,0.463-6.295c-0.1-3.193-0.597-6.374-0.888-9.563
		c-0.059-0.645-0.062-1.332,0.094-1.954c1.357-5.466,0.242-10.408-2.009-15.569c-1.565-3.59-1.71-7.924-1.909-11.954
		c-0.303-6.083,0.975-12.473-0.525-18.179c-0.867-3.295,0.119-5.656,0.166-8.443c0.09-5.267,0.025-10.536,0.025-16.265
		c-0.973,0.835-1.717,1.474-2.965,2.543c2.279-9.795,4.42-18.959,6.531-28.131c0.182-0.794,0.558-2.037,0.189-2.392
		c-5.215-5.019-0.756-9.439,1.014-13.752c3.27-7.973,6.526-16.041,10.822-23.472c2.897-5.011,7.643-8.935,11.428-13.456
		c4.201-5.018,8.2-10.204,12.393-15.23c1.73-2.074,4.472-3.6,5.483-5.927c4.224-9.721,10.974-17.319,17.823-23.434
		c1.735,1.164,2.994,2.008,4.387,2.942c4.404-5.686,10.156-6.782,16.698-6.303c1.889,0.139,4.004-1.157,5.827-2.144
		c3.701-2,7.272-4.236,10.897-6.376c0.309,0.358,0.617,0.718,0.926,1.076c-0.413,0.646-0.826,1.291-1.397,2.183
		c2.701,0.621,5.386,1.239,7.335,1.688c2.55-1.205,4.792-2.196,6.961-3.329c0.731-0.382,1.269-1.132,1.908-1.698
		c0.722-0.641,1.928-1.934,2.12-1.799c4.731,3.326,5.526-2.719,8.098-3.273c5.648-1.218,7.995-5.755,11.499-9.131
		c2.088-2.012,3.788-4.427,5.761-6.777c0.166,0.329,0.63,1.251,1.146,2.276c1.775-0.515,3.633-1.054,5.482-1.59
		c0.207,0.972,0.442,2.069,1.108,5.185c2.482-7.782,7.736-4.841,12.272-5.041c0.166,0.539,0.586,1.898,1.29,4.183
		c2.045-1.089,3.892-2.073,5.902-3.145c-0.033,0.751-0.079,1.753-0.132,2.92c4.284-0.575,8.362-1.124,13.917-1.87
		c-2.148,1.879-3.146,2.752-4.146,3.626c0.07,0.243,0.142,0.486,0.212,0.73c2.178-0.602,4.356-1.203,6.309-1.742
		c0.425,0.672,1.012,1.603,1.909,3.023c-0.298,0.814-0.912,2.498-1.903,5.215c3.554-0.919,6.006-1.554,8.782-2.271
		c0,2.248,0,4.589,0,7.505c1.629-0.267,3.336-0.521,5.033-0.831c1.423-0.261,2.903-1.021,4.238-0.808
		c6.72,1.076,7.446,0.758,10.995-5.513c-0.446,2.369-0.893,4.738-1.445,7.668c2.005,0,4.78,0,9.037,0
		c-2.723,0.91-4.011,1.341-6.279,2.099c5.619,2.895,8.15-1.987,12.678-3.008c-1.485,1.579-2.386,2.536-3.664,3.896
		c1.427,0.202,2.563,0.362,4.053,0.573c-0.893,1.275-1.697,2.424-2.831,4.043c4.767,2.702,9.409,5.334,14.358,8.14
		c0.609-0.651,1.455-1.556,2.836-3.031c0.133,4.616,1.711,6.345,5.887,4.564c1.103-0.471,2.863,0.604,5.52,1.267
		c1.71-2.244,4.154-5.453,6.6-8.663c0.091,0.098,0.183,0.195,0.273,0.292c-1.161,2.66-2.323,5.319-3.484,7.979
		c0.385,0.308,0.771,0.616,1.155,0.924c5.43-3.087,10.858-6.173,16.896-9.604c1.152,5.206-4.561,6.666-6.757,10.982
		c1.903-0.913,2.951-1.416,3.863-1.854c1.248,3.374,2.472,6.684,3.754,10.149c0.377-0.055,1.317-0.189,2.401-0.346
		c0.275,8.773,8.779,3.53,12.68,7.904c-3.33,1.235-6.272,2.326-9.215,3.417c0.088,0.326,0.177,0.653,0.266,0.979
		c7.206,0,14.412,0,21.831,0c-1.99,2.261-4.287,3.768-4.721,5.694c-0.383,1.7,1.312,3.868,2.299,6.359
		c-1.126-0.645-1.884-1.077-2.641-1.511c-0.211,0.232-0.422,0.464-0.632,0.696c1.098,1.349,2.196,2.698,3.295,4.047
		c-0.182,0.241-0.362,0.482-0.544,0.724c-0.726-0.437-1.451-0.872-2.341-1.406c-2.377,5.995,3.013,8.429,5.869,12.354
		c2.563-2.346,5.053-4.623,7.541-6.901c0.304,0.201,0.607,0.401,0.911,0.603c-2.067,2.646-4.135,5.292-6.252,8.002
		c2.453,10.796,4.924,21.669,7.441,32.743c0.861-0.567,1.752-1.153,2.851-1.876c1.372,4.257-5.246,9.243,1.06,11.912
		c-0.281,3.629-0.652,6.724-0.737,9.825c-0.286,10.437-2.574,20.617-0.446,31.406c1.397,7.086-1.76,15.067-2.856,22.651
		c-0.453,3.132-0.98,6.261-1.243,9.41c-0.282,3.393-0.186,6.817-0.458,10.211c-0.235,2.945,1.235,6.433-3.225,8.175
		c-0.812,0.317-0.285,4.918,0.274,7.394c0.186,0.817,2.38,1.511,3.727,1.672c3.82,0.46,7.041,6.632,6.323,12.055
		c-2.394,18.084-4.73,36.177-7.02,54.274c-0.978,7.732-1.908,15.477-2.589,23.239c-0.181,2.07,0.535,4.252,1.016,6.342
		c1.951,8.497-2.677,15.294-11.442,16.049c-3.488,0.3-3.563,2.294-3.601,4.707c-0.149,9.658-0.293,19.316-0.393,28.976
		c-0.228,22.002-5.739,42.384-18.233,60.727c-1.211,1.778-2.113,4.363-1.88,6.429c1.135,10.07,2.438,20.14,4.22,30.112
		c1.08,6.045,3.925,10.767,11.457,10.656c1.78-0.026,3.908,2.223,5.34,3.887c4.349,5.055,8.425,10.097,16.307,6.501
		c1.463-0.668,3.914-0.49,5.345,0.308c9.609,5.364,20.885,4.015,30.906,8.095c8.401,3.421,16.725,6.63,23.207,13.127
		c8.458,8.478,18.803,13.186,30.043,16.777c16.367,5.232,31.255,13.668,46.378,21.776c16.017,8.587,22.93,15.678,39.917,22.214
		c10.312,3.968,18.721,13.276,26.648,19.808c4.194,5.139,20.442,10.608,23.896,16.271c3.201,1.866,11.413,7.231,12.805,10.881
		c-244,0-490.349,0-734.349,0C0,617.328,4.87,616.66,8.58,610.334z"/>
</g>
</svg>
