<svg xmlns="http://www.w3.org/2000/svg" viewBox="0 0 21.8 25.01"><defs><style>.cls-1{fill:none;stroke:#fff;isolation:isolate;}</style></defs><title>user icon</title><g id="Layer_2" data-name="Layer 2"><g id="Layer_1-2" data-name="Layer 1"><path id="Path_200" data-name="Path 200" class="cls-1" d="M21.29,20.68a3.67,3.67,0,0,1-1.08,2.8,4,4,0,0,1-2.86,1H4.45a4,4,0,0,1-2.87-1A3.67,3.67,0,0,1,.5,20.68q0-.78.06-1.53c0-.54.11-1.08.2-1.61a14.35,14.35,0,0,1,.39-1.6,8.42,8.42,0,0,1,.64-1.44,5.07,5.07,0,0,1,.91-1.2A4,4,0,0,1,4,12.51a4.58,4.58,0,0,1,1.64-.3,1.92,1.92,0,0,1,.62.32l1.1.71a7.16,7.16,0,0,0,1.6.71,6.22,6.22,0,0,0,3.94,0,7.09,7.09,0,0,0,1.59-.71l1.1-.71a2.15,2.15,0,0,1,.62-.32,4.6,4.6,0,0,1,1.65.3,3.84,3.84,0,0,1,1.26.79A5.63,5.63,0,0,1,20,14.5a7.67,7.67,0,0,1,.63,1.44,11.3,11.3,0,0,1,.39,1.6,14.78,14.78,0,0,1,.21,1.61C21.27,19.65,21.29,20.15,21.29,20.68ZM16.57,6.17a5.46,5.46,0,0,1-1.67,4,5.45,5.45,0,0,1-4,1.66,5.49,5.49,0,0,1-4-1.66,5.49,5.49,0,0,1-1.66-4,5.49,5.49,0,0,1,1.66-4A5.49,5.49,0,0,1,10.9.5a5.45,5.45,0,0,1,4,1.66A5.46,5.46,0,0,1,16.57,6.17Z"/></g></g></svg>