<?xml version="1.0" encoding="utf-8"?>
<!-- Generator: Adobe Illustrator 16.0.0, SVG Export Plug-In . SVG Version: 6.00 Build 0)  -->
<!DOCTYPE svg PUBLIC "-//W3C//DTD SVG 1.1//EN" "http://www.w3.org/Graphics/SVG/1.1/DTD/svg11.dtd">
<svg version="1.1" id="Capa_1" xmlns="http://www.w3.org/2000/svg" xmlns:xlink="http://www.w3.org/1999/xlink" x="0px" y="0px"
	 width="612px" height="792px" viewBox="0 0 612 792" enable-background="new 0 0 612 792" xml:space="preserve">
<g>
	<g>
		<g>
			<polygon points="276.399,243 337.6,243 337.6,365.4 460,365.4 460,426.601 337.6,426.601 337.6,549 276.399,549 276.399,426.601 
				154,426.601 154,365.4 276.399,365.4 			"/>
			<path d="M307.001,90C475.76,90,613,227.241,613,395.999c0,168.759-137.24,305.999-305.999,305.999H62.2
				c-33.813,0-61.2-27.386-61.2-61.2V395.999C1,227.241,138.241,90,307.001,90z M307.001,640.8
				c134.946,0,244.8-109.854,244.8-244.801c0-134.946-109.854-244.799-244.8-244.799S62.2,261.053,62.2,395.999
				C62.2,530.945,172.055,640.8,307.001,640.8z"/>
		</g>
	</g>
</g>
</svg>
