<svg xmlns="http://www.w3.org/2000/svg" viewBox="0 0 27 27"><defs><style>.cls-1{fill:none;stroke:#abb2b8;stroke-miterlimit:10;}.cls-2{fill:#abb2b8;}</style></defs><title>Asset 1</title><g id="Layer_2" data-name="Layer 2"><g id="Layer_1-2" data-name="Layer 1"><circle class="cls-1" cx="13.5" cy="13.5" r="13"/><path class="cls-2" d="M12.34,16.71a5.6,5.6,0,0,1,.25-2,4.72,4.72,0,0,1,1.23-1.45,20.94,20.94,0,0,0,1.37-1.76,2.55,2.55,0,0,0,.41-1.48,2.15,2.15,0,0,0-.55-1.59,2.07,2.07,0,0,0-1.57-.56A2.42,2.42,0,0,0,12,8.39a1.7,1.7,0,0,0-.62,1.42H9.5l0-.06a3,3,0,0,1,1.11-2.51,4.33,4.33,0,0,1,2.9-1,4.25,4.25,0,0,1,3,1A3.54,3.54,0,0,1,17.53,10a4.06,4.06,0,0,1-.69,2.3A13.05,13.05,0,0,1,15,14.45a2.26,2.26,0,0,0-.64,1,5.31,5.31,0,0,0-.11,1.31Zm2,4h-2v-2h2Z"/></g></g></svg>