<?xml version="1.0" encoding="utf-8"?>
<!-- Generator: Adobe Illustrator 16.0.0, SVG Export Plug-In . SVG Version: 6.00 Build 0)  -->
<!DOCTYPE svg PUBLIC "-//W3C//DTD SVG 1.1//EN" "http://www.w3.org/Graphics/SVG/1.1/DTD/svg11.dtd">
<svg version="1.1" id="Capa_1" xmlns="http://www.w3.org/2000/svg" xmlns:xlink="http://www.w3.org/1999/xlink" x="0px" y="0px"
	 width="612px" height="792px" viewBox="0 0 612 792" enable-background="new 0 0 612 792" xml:space="preserve">
<g>
	<g>
		<g>
			<polygon display="none" points="336.601,243 275.4,243 275.4,365.4 153,365.4 153,426.601 275.4,426.601 275.4,549 336.601,549 
				336.601,426.601 459,426.601 459,365.4 336.601,365.4 			"/>
			<rect x="153" y="365.4" stroke="#000000" stroke-miterlimit="10" width="306" height="61.201"/>
			<path d="M305.999,90C137.241,90,0,227.241,0,395.999c0,168.759,137.241,305.999,305.999,305.999H550.8
				c33.813,0,61.2-27.386,61.2-61.2V395.999C612,227.241,474.759,90,305.999,90z M305.999,640.8
				c-134.946,0-244.8-109.854-244.8-244.801c0-134.946,109.854-244.799,244.8-244.799c134.946,0,244.801,109.853,244.801,244.799
				C550.8,530.945,440.945,640.8,305.999,640.8z"/>
		</g>
	</g>
</g>
</svg>
